<svg xmlns="http://www.w3.org/2000/svg" viewBox="0 0 283 292" width="283" height="292">
	<defs>
		<clipPath clipPathUnits="userSpaceOnUse" id="cp1">
			<path d="M-420 -180L707 -180L707 573L-420 573Z" />
		</clipPath>
		<linearGradient id="grd1" gradientUnits="userSpaceOnUse"  x1="4.535" y1="318.367" x2="322.606" y2="0.295">
			<stop offset="0" stop-color="#ffff00"  />
			<stop offset="1" stop-color="#ff0000"  />
		</linearGradient>
		<linearGradient id="grd2" gradientUnits="userSpaceOnUse"  x1="184.833" y1="124.33" x2="214.933" y2="155.35">
			<stop offset="0" stop-color="#ff6600"  />
			<stop offset="1" stop-color="#a10500"  />
		</linearGradient>
		<linearGradient id="grd3" gradientUnits="userSpaceOnUse"  x1="139.542" y1="154.619" x2="226.822" y2="169.379">
			<stop offset="0" stop-color="#ff6600"  />
			<stop offset="1" stop-color="#a10500"  />
		</linearGradient>
		<linearGradient id="grd4" gradientUnits="userSpaceOnUse"  x1="-9.83" y1="327.882" x2="291.722" y2="153.79">
			<stop offset="0" stop-color="#ff6600"  />
			<stop offset="1" stop-color="#a10500"  />
		</linearGradient>
		<linearGradient id="grd5" gradientUnits="userSpaceOnUse"  x1="156.272" y1="168.136" x2="-17.383" y2="168.136">
			<stop offset="0" stop-color="#ff6600"  />
			<stop offset="1" stop-color="#a10500"  />
		</linearGradient>
		<linearGradient id="grd6" gradientUnits="userSpaceOnUse"  x1="215.983" y1="145.675" x2="239.967" y2="152.088">
			<stop offset="0" stop-color="#ff6600"  />
			<stop offset="1" stop-color="#a10500"  />
		</linearGradient>
	</defs>
	<style>
		tspan { white-space:pre }
		.shp0 { fill: url(#grd1) } 
		.shp1 { fill: #fde3a7 } 
		.shp2 { fill: url(#grd2) } 
		.shp3 { fill: url(#grd3) } 
		.shp4 { fill: url(#grd4) } 
		.shp5 { fill: url(#grd5) } 
		.shp6 { fill: url(#grd6) } 
		.shp7 { fill: #ffffff } 
		.shp8 { fill: #c0c0c0 } 
	</style>
	<g id="Page 1" clip-path="url(#cp1)">
		<path id="Path 2" class="shp0" d="M80.16 83.63C60.39 103.31 45.31 139.36 39.17 166.79C35.87 181.5 44.05 218.31 45.68 228.01C48.64 245.71 62.9 231.59 55.07 245.05C65.79 252.65 87.74 268.14 116.44 277.05C116.44 277.05 111.38 286.83 103.31 291.17C103.31 291.17 106.93 290.68 113.4 289.95C137.8 287.19 139.81 265.38 162.45 258.23C167.11 256.75 168.59 260.85 169.6 264.95C170.64 269.19 171.18 273.43 174.24 271.5C174.24 271.5 204.84 250.12 225.92 210.26C247 170.41 265.27 164.09 265.27 164.09C265.27 164.09 278.15 149.31 272.63 133.85C268.19 136.41 264.3 135.99 262.71 131.84C255.31 135.59 247.91 139.31 240.8 143.57L242.42 140.45C232.6 134.79 222.41 134.01 213.18 136.9C207.73 134.99 196.29 131.95 181.95 133.51C181.95 133.51 182.98 136.94 186.06 140.8C182.56 141.55 178.82 142.63 174.95 144.13C174.95 144.13 179.77 151.88 190.17 154.57C189.92 154.94 189.67 155.31 189.43 155.68C168.54 187.53 133.47 187.67 100.38 160.98C100.38 160.98 110.8 164.31 121.88 166.57C102.05 149.94 105.11 108.68 138.55 89.25C116.51 91.96 102.5 104.41 102.5 104.41C127.78 68.24 167.89 59.57 208.96 73.1C188.45 59.83 167.96 53.54 148.49 53.54C123.28 53.54 99.79 64.07 80.16 83.63Z" />
		<path id="Path 3" class="shp1" d="M263.77 133.72C263.35 133.21 262.99 132.58 262.71 131.84C255.31 135.59 247.91 139.31 240.8 143.57L239.91 146.26L263.77 133.72ZM241.69 141.86L242.42 140.45C232.6 134.79 222.41 134.01 213.18 136.9L212.94 136.81L212.95 136.93L186.06 140.8C182.56 141.55 178.82 142.62 174.95 144.13C189.4 146.51 203.97 137.85 219.19 139.05L213.68 140.99C213.68 140.99 223.11 137.71 241.69 141.86Z" />
		<path id="Path 4" class="shp2" d="M184.29 138.3C184.78 139.09 185.37 139.93 186.06 140.8L213.18 136.9C213.18 136.9 211.86 136.86 209.64 136.86C204.47 136.86 194.39 137.05 184.29 138.3Z" />
		<path id="Path 5" class="shp3" d="M190.17 154.57C189.92 154.94 189.67 155.31 189.43 155.68C181.22 168.2 170.82 175.81 159.21 178.83L159.22 178.83C179.97 178.83 193.24 162.43 201 151.91C185.02 153.98 174.95 144.13 174.95 144.13C174.95 144.13 179.77 151.88 190.17 154.57Z" />
		<path id="Path 6" class="shp4" d="M214.84 171.41C216.81 168.48 218.51 166.95 218.51 166.95C190.95 178.51 183.71 198.47 183.71 198.47C182.67 192.39 184.07 187.64 184.07 187.64C142.44 222.27 147.95 270.48 104 291.01L103.92 291.09C105.2 290.92 108.47 290.51 113.4 289.95C137.8 287.19 139.81 265.38 162.45 258.23C167.11 256.75 168.59 260.85 169.6 264.95C170.64 269.19 171.18 273.43 174.24 271.5C174.24 271.5 204.84 250.12 225.92 210.26C247 170.41 265.27 164.09 265.27 164.09C265.27 164.09 278.19 149.26 272.6 133.77C266.66 149.91 234.41 162.35 214.84 171.41Z" />
		<path id="Path 7" class="shp5" d="M80.16 83.63C60.39 103.31 45.31 139.36 39.17 166.79C35.87 181.5 44.05 218.31 45.68 228.01C48.64 245.71 62.9 231.59 55.07 245.05C65.79 252.65 87.74 268.14 116.44 277.05C96.16 263.86 83.6 228.31 83.6 228.31C97.47 238.77 117.68 239.32 117.68 239.32C86.04 216.68 76.05 165.08 76.05 165.08L91.15 174.82C60.68 100.58 116.5 59.74 117.23 59.22C103.87 64.22 91.38 72.45 80.16 83.63Z" />
		<path id="Path 8" class="shp6" d="M220.88 145.71C220.88 145.71 219.35 150.5 221.59 151.83C223.84 153.17 233.28 145.21 233.28 145.21L220.88 145.71Z" />
		<path id="Path 9" class="shp7" d="M266.86 164.84C266.86 164.84 278.55 149.36 272.62 133.72C274.6 158.52 224.49 162.8 210.6 190.33C210.6 190.33 209.26 186.23 210.31 180.5C210.31 180.5 186.6 208.93 179.21 236.53C179.21 236.53 175.12 223.89 179.28 209.57C154.97 232.81 151.42 279.9 103.32 291.17C113.75 291.22 144.78 288.27 163.65 265.97C163.65 265.97 159.18 274.2 151.47 283.25C174 275.32 191.6 261.98 205.63 245.68C202.56 254.09 200.01 260.37 200.01 260.37C224.48 238.49 226.18 217.88 235.85 198.22C236.02 207.19 239.64 214.4 239.64 214.4C238.41 194.45 250.44 175.26 266.86 164.84Z" />
		<path id="Path 10" class="shp8" d="M272.66 133.84L272.62 133.72C274.6 158.52 224.49 162.8 210.6 190.33C210.6 190.33 209.26 186.23 210.31 180.5C210.31 180.5 186.6 208.93 179.21 236.53C179.21 236.53 175.12 223.89 179.28 209.57C154.97 232.81 151.42 279.9 103.32 291.17C113.75 291.22 144.78 288.27 163.65 265.97C163.65 265.97 159.18 274.2 151.47 283.25C199.14 254.87 188 226.61 212.97 195.61C211.63 204.5 213.21 209.91 213.21 209.91C227.95 170.48 281.56 161.92 272.63 133.85L272.66 133.84Z" />
		<path id="Path 11" class="shp7" d="M238.45 65.95C259.04 77.84 274.02 95.72 282.46 116.12C254.75 31.25 176.18 21.98 176.18 21.98C201.36 15.69 222.57 25.82 223.23 26.14C194.17 6.16 139.55 4.21 109.46 22.19C126.89 7.15 143.36 1.38 144.98 0.84C144.77 0.83 144.57 0.83 144.36 0.83C40.92 12.11 15.1 107.43 16.3 124.34C8.14 92.47 17.71 72.51 17.71 72.51C-30.45 155.94 30.67 261.31 116.44 277.05C69.54 251.57 54.18 219.35 46.51 189.68C56.65 200.98 86.1 218.84 86.1 218.84C56.63 182.58 57.2 146.61 57.39 134.39C59.22 141.08 64.71 153.77 69.13 158.05C63.47 118.76 81.97 83.65 109.14 64.4C148.95 36.2 198.23 42.73 238.45 65.95Z" />
		<path id="Path 12" class="shp8" d="M238.45 65.95C259.04 77.84 274.02 95.72 282.46 116.12C272 85.51 232.31 40.48 179.13 34.64C125.95 28.8 91.02 56.18 91.02 56.18C99.9 42.91 112.56 32.81 112.56 32.81C30.05 72.49 39.54 142.34 39.54 142.34C35.89 126.52 34.43 96.83 34.43 96.83C1.74 179.68 33.36 256.42 116.44 277.05C69.54 251.57 54.18 219.35 46.51 189.68C56.65 200.98 86.1 218.84 86.1 218.84C56.63 182.58 57.2 146.61 57.39 134.39C59.22 141.08 64.71 153.77 69.13 158.05C63.47 118.76 81.97 83.65 109.14 64.4C148.95 36.2 198.23 42.73 238.45 65.95Z" />
	</g>
</svg>